<svg id="visual" viewBox="0 0 900 600" width="900" height="600" xmlns="http://www.w3.org/2000/svg" xmlns:xlink="http://www.w3.org/1999/xlink" version="1.1"><rect x="0" y="0" width="900" height="600" fill="#002233"></rect><path d="M0 458L21.5 448.5C43 439 86 420 128.8 409.8C171.7 399.7 214.3 398.3 257.2 394.8C300 391.3 343 385.7 385.8 395.3C428.7 405 471.3 430 514.2 440.7C557 451.3 600 447.7 642.8 448.8C685.7 450 728.3 456 771.2 456.3C814 456.7 857 451.3 878.5 448.7L900 446L900 601L878.5 601C857 601 814 601 771.2 601C728.3 601 685.7 601 642.8 601C600 601 557 601 514.2 601C471.3 601 428.7 601 385.8 601C343 601 300 601 257.2 601C214.3 601 171.7 601 128.8 601C86 601 43 601 21.5 601L0 601Z" fill="#FF0066" stroke-linecap="round" stroke-linejoin="miter"></path></svg>